# xmcd CD database file
#
# Track frame offsets:
#	150
#	15644
#	31084
#	44892
#	59303
#	78395
#	92020
#	109264
#	127617
#	141968
#	157556
#	172456
#	184909
#	205916
#	233891
#	250426
#	262782
#	283155
#	298478
#	315494
#	335519
#
# Disc length: 4626 seconds
#
# Revision: 0
# Processed by: cddbd v1.5.2PL0 Copyright (c) Steve Scherf et al.
# Submitted via: CDex 1.70beta2
#
DISCID=34121015
DTITLE=Валерий Ободзинский - Лучшие песни
DYEAR=2005
DGENRE=Jazz
TTITLE0=Эти глаза напротив
TTITLE1=Восточная песня
TTITLE2=Листопад
TTITLE3=Никогда
TTITLE4=Такая ночь
TTITLE5=Карнавал
TTITLE6=Белые крылья
TTITLE7=Олеандр
TTITLE8=Что-то случилось
TTITLE9=Запоздалая любовь
TTITLE10=Неотправленое письмо
TTITLE11=Пойми меня
TTITLE12=Запомни
TTITLE13=Аравийская песня
TTITLE14=Русское поле
TTITLE15=Анна
TTITLE16=Лесная колдунья
TTITLE17=Вечная весна
TTITLE18=Первое апреля
TTITLE19=Золото Маккены
TTITLE20=Наше танго
EXTD=YEAR: 2005
EXTT0=
EXTT1=
EXTT2=
EXTT3=
EXTT4=
EXTT5=
EXTT6=
EXTT7=
EXTT8=
EXTT9=
EXTT10=
EXTT11=
EXTT12=
EXTT13=
EXTT14=
EXTT15=
EXTT16=
EXTT17=
EXTT18=
EXTT19=
EXTT20=
PLAYORDER=
